<?xml version="1.0" encoding="iso-8859-1"?>
<!-- Generator: Adobe Illustrator 25.3.1, SVG Export Plug-In . SVG Version: 6.00 Build 0)  -->
<svg version="1.1" id="Layer_1" xmlns="http://www.w3.org/2000/svg" xmlns:xlink="http://www.w3.org/1999/xlink" x="0px" y="0px"
	 width="1080px" height="1080px" viewBox="0 0 1080 1080" enable-background="new 0 0 1080 1080" xml:space="preserve">
<g>
	<path fill="#FFFFFF" d="M92.68,583.66c1.62-221.008,177.437-396.517,396.131-397.051
		c223.216-0.545,399.431,177.469,398.893,398.386c-0.536,219.956-176.442,397.228-399.492,396.357
		C269.385,980.498,93.936,804.586,92.68,583.66z M833.837,584.12C833.5,393.646,679.835,241.604,492.715,240.537
		C300.422,239.44,147.28,394.816,146.864,583.146C146.444,773.102,300.821,928.8,493.115,927.437
		C680.302,926.11,833.384,774.009,833.837,584.12z"/>
	<path fill="#FFFFFF" d="M688.475,631.529c-12.669,71.128-83.348,153.342-189.363,157.23
		c-121.111,4.441-211.691-89.995-213.584-200.842c-2.019-118.224,93.513-213.34,213.597-208.743
		c105.801,4.05,176.556,85.852,189.322,157.042c-17.316,0-34.457,0.242-51.573-0.309c-2.113-0.068-4.493-4.121-6.061-6.739
		c-7.975-13.315-14.346-27.846-23.83-39.953c-21.861-27.91-50.505-46.576-85.828-52.203c-17.688-2.818-36.308-4.297-53.935-1.998
		c-31.144,4.061-58.579,18.15-81.401,40.148c-24.297,23.421-39.862,52.091-44.528,85.273c-6.897,49.049,6.329,92.747,41.177,128.765
		c21.421,22.141,47.339,36.509,77.883,42.274c51.759,9.768,96.787-3.53,134.999-39.482c15.838-14.902,27.791-32.727,35.342-53.256
		c2.007-5.457,5.292-7.475,11.183-7.331C657.329,631.778,672.798,631.529,688.475,631.529z"/>
</g>
<line fill="none" stroke="#FFFFFF" stroke-width="49.4935" stroke-miterlimit="10" x1="1026.536" y1="79.206" x2="53.463" y2="1000.794"/>
<g>
</g>
<g>
</g>
<g>
</g>
<g>
</g>
<g>
</g>
<g>
</g>
</svg>
