<?xml version="1.0" encoding="iso-8859-1"?>
<!-- Generator: Adobe Illustrator 25.3.1, SVG Export Plug-In . SVG Version: 6.00 Build 0)  -->
<svg version="1.1" id="Layer_1" xmlns="http://www.w3.org/2000/svg" xmlns:xlink="http://www.w3.org/1999/xlink" x="0px" y="0px"
	 width="1080px" height="1080px" viewBox="0 0 1080 1080" enable-background="new 0 0 1080 1080" xml:space="preserve">
<path fill="#F1F2F2" d="M1079.597,658.081l-3.162-66.486l-12.472-55.041c0,0-17.196-34.896-25.933-44.293
	c-6.55-7.045-23.07-17.562-31.704-21.804c-9.088-4.465-27.714-12.82-37.574-15.127c-9.013-2.108-27.665-2.488-36.914-2.844
	c-8.668-0.333-26.185,2.36-34.699,4.02c-10.797,2.105-40.778,12.508-40.778,12.508l-24.734,9.777c0,0-30.951,12.526-41.542,15.922
	c-7.163,2.297-29.118,7.582-29.118,7.582s-31.879,11.218-42.889,13.481c-10.314,2.12-41.904,4.241-41.904,4.241l-53.109,4.581
	l-74.378,9.162l-43.304,4.22l-11.385-12.676l-8.393-67.947l-14.422-65.025l-14.819-37.353l-18.857-43.471l-23.066-38.38
	l-21.18-29.262l-23.824-28.854l-21.075-22.418l-37.54-24.059l-38.139-28.986l-54.26-23.291L188.31,96.214l-30.286-48.501
	l-28.649-28.649L104.092,3.829C102.9,3.111,91.265-0.066,89.874,0.001L72.952,1.196c-8.284,0-26.391,20.945-8.457,34.189
	l17.11,10.436c0.311,0.282,7.049,3.88,13.154,7.152c6.404,3.432,12.032,8.11,16.567,13.786l1.408,1.762
	c11.656,14.587,19.66,31.747,23.345,50.052l1.414,7.023c2.57,4.081,0.368,9.453-4.326,10.562
	c-14.945,3.532-33.231,12.983-41.141,17.313c-2.425,1.327-3.821,3.947-3.601,6.703l-40.717,11.748l-7.476,1.534
	c-5.902,1.211-12.194,1.087-17.645-1.479c-6.551-3.084-11.738-20.713-19.211-20.214C0.761,151.938,0,161.692,0,161.692l4.992,30.443
	l8.613,45.771c0.338,1.795,1.277,3.422,2.663,4.612l1.87,1.606c1.825,1.567,4.463,1.748,6.485,0.445
	c0,0,24.536-15.522,40.322-20.926c15.073-5.16,32.139-7.625,34.08-7.551c11.018,0.423,34.675,3.02,52.773,16.784
	c9.105,6.925,29.133,35.284,29.133,35.284l19.159,45.69l17.143,65.481l21.478,139.158l2.783,54.66c0,0,6.809,70.161,11.679,94.872
	c6.674,33.863,33.272,131.315,39.176,151.571c0.723,2.48-0.366,4.042-3.647,6.521c-3.659,2.764-5.227,7.95-4.295,11.231
	c1.856,6.527,7.838,11.739,11.479,19.856c4.637,10.338,6.091,23.58,3.287,25.14c-4.286,2.385-12.078-0.792-19.569,2.811
	c-3.722,1.791-3.159,4.294-2.138,7.14c5.898,16.435,14.356,40.906,19.478,69.686c9.252,51.987,11.437,110.198,11.437,110.198h53.619
	l-13.398-84.732c0,0-1.875-36.817,0-48.896c9.906-63.8,78.309-246.101,78.309-246.101l19.968-33.506l5.169-36.268l192.656-26.411
	l33.271-5.457c34.503-2.311,41.589-1.485,46.349,5.457c6.626,9.663,6.405,43.012,6.405,43.012c2.149,3.912,8.287,9.478,16.315,7.668
	l26.994-16.696l6.461,20.194l20.533,35.029c0,0,26.346,34.148,61.597,79.757c30.486,39.444,68.799,128.98,65.947,177.471
	c-2.852,48.491-10.915,66.148-10.915,66.148l-1.82,54.952c-0.152,4.582,3.522,8.379,8.106,8.379h60.982l-0.269-61.175l-13.313,1.01
	l9.62-45.982c0,0,8.268-13.629,8.331-14.019c0,0-0.409,1.1,3.979-9.091c3.445-8.001-0.502-12.145-0.502-12.145l-8.237-6.523
	c-2.347-3.605-3.437-7.885-3.099-12.174l5.79-39.891l20.151-120.685l5.858-55.421l-1.606-32.023c0,0,3.663-28.765,3.193-38.382
	c-0.543-11.099-4.195-33.28-7.993-43.723c-4.913-13.51-13.854-38.106-22.552-49.552c-6.123-8.057-32.273-30.259-32.273-30.259
	c-0.242-0.242-0.501-0.466-0.776-0.67l-13.4-9.961c0,0,4.509-2.459,6.121-3.016c0.826-0.286,10.854-0.397,11.717-0.254l11.051,1.835
	c0,0,11.793,2.914,15.434,4.64c7.438,3.527,27.298,18.414,27.298,18.414s9.699,11.905,12.4,16.241
	c3.885,6.237,13.105,26.311,13.105,26.311s7.351,27.872,8.772,37.361c1.516,10.117,2.733,40.827,2.733,40.827
	s-6.454,14.898-5.468,22.546c1.558,12.073,6.81,39.438,7.495,61.24c0.958,30.484-5.585,62.69-5.585,62.69l-1.91,43.773
	l-4.785,108.097l-0.935,46.076l1.749,19.203l6.161,9.73l7.498-2.301l8.841-5.221l6.144-13.021l-0.932-39.925l4.709-50.89
	l3.904-34.11l4.253-45.421v-51.107l2.398-50.983L1079.597,658.081z"/>
<g>
</g>
<g>
</g>
<g>
</g>
<g>
</g>
<g>
</g>
<g>
</g>
</svg>
